<svg width="19" height="19" viewBox="0 0 19 19" fill="none" xmlns="http://www.w3.org/2000/svg">
<path d="M12.7812 8.1875V4.25C12.7812 3.37976 12.4355 2.54516 11.8202 1.92981C11.2048 1.31445 10.3702 0.96875 9.49999 0.96875C8.62975 0.96875 7.79515 1.31445 7.17979 1.92981C6.56444 2.54516 6.21874 3.37976 6.21874 4.25V8.1875M16.1552 6.44362L17.2604 16.9436C17.3216 17.5255 16.8666 18.0312 16.2812 18.0312H2.71874C2.58067 18.0314 2.44411 18.0025 2.31794 17.9464C2.19177 17.8904 2.0788 17.8084 1.98638 17.7058C1.89396 17.6032 1.82415 17.4824 1.78148 17.3511C1.73882 17.2197 1.72426 17.0809 1.73874 16.9436L2.84474 6.44362C2.87025 6.20174 2.98441 5.97786 3.16521 5.81516C3.346 5.65246 3.58063 5.56246 3.82386 5.5625H15.1761C15.6801 5.5625 16.1027 5.94312 16.1552 6.44362ZM6.54686 8.1875C6.54686 8.27452 6.51229 8.35798 6.45076 8.41952C6.38922 8.48106 6.30576 8.51562 6.21874 8.51562C6.13171 8.51562 6.04825 8.48106 5.98672 8.41952C5.92518 8.35798 5.89061 8.27452 5.89061 8.1875C5.89061 8.10048 5.92518 8.01702 5.98672 7.95548C6.04825 7.89394 6.13171 7.85938 6.21874 7.85938C6.30576 7.85938 6.38922 7.89394 6.45076 7.95548C6.51229 8.01702 6.54686 8.10048 6.54686 8.1875ZM13.1094 8.1875C13.1094 8.27452 13.0748 8.35798 13.0133 8.41952C12.9517 8.48106 12.8683 8.51562 12.7812 8.51562C12.6942 8.51562 12.6108 8.48106 12.5492 8.41952C12.4877 8.35798 12.4531 8.27452 12.4531 8.1875C12.4531 8.10048 12.4877 8.01702 12.5492 7.95548C12.6108 7.89394 12.6942 7.85938 12.7812 7.85938C12.8683 7.85938 12.9517 7.89394 13.0133 7.95548C13.0748 8.01702 13.1094 8.10048 13.1094 8.1875Z" stroke="#875541" stroke-width="1.5" stroke-linecap="round" stroke-linejoin="round"/>
</svg>
