<svg width="16" height="18" viewBox="0 0 16 18" fill="none" xmlns="http://www.w3.org/2000/svg">
<path d="M10.3808 13.235C11.9335 13.0512 13.4591 12.6847 14.9258 12.1433C13.6836 10.7673 12.9973 8.97875 13 7.125V6.54167V6.5C13 5.17392 12.4732 3.90215 11.5355 2.96447C10.5979 2.02678 9.32608 1.5 8 1.5C6.67392 1.5 5.40215 2.02678 4.46447 2.96447C3.52678 3.90215 3 5.17392 3 6.5V7.125C3.00251 8.97886 2.31582 10.7675 1.07333 12.1433C2.5175 12.6767 4.04 13.0475 5.61917 13.235M10.3808 13.235C8.79916 13.4226 7.20085 13.4226 5.61917 13.235M10.3808 13.235C10.5009 13.6099 10.5308 14.0078 10.468 14.3964C10.4052 14.785 10.2515 15.1533 10.0195 15.4713C9.78744 15.7893 9.48359 16.048 9.13266 16.2263C8.78173 16.4047 8.39365 16.4976 8 16.4976C7.60635 16.4976 7.21827 16.4047 6.86734 16.2263C6.51641 16.048 6.21256 15.7893 5.98052 15.4713C5.74848 15.1533 5.5948 14.785 5.53201 14.3964C5.46922 14.0078 5.49908 13.6099 5.61917 13.235" stroke="#101F37" stroke-width="1.5" stroke-linecap="round" stroke-linejoin="round"/>
</svg>
